<?xml version="1.0" encoding="UTF-8" standalone="no"?>
<svg
   xmlns:dc="http://purl.org/dc/elements/1.1/"
   xmlns:cc="http://creativecommons.org/ns#"
   xmlns:rdf="http://www.w3.org/1999/02/22-rdf-syntax-ns#"
   xmlns:svg="http://www.w3.org/2000/svg"
   xmlns="http://www.w3.org/2000/svg"
   xmlns:sodipodi="http://sodipodi.sourceforge.net/DTD/sodipodi-0.dtd"
   xmlns:inkscape="http://www.inkscape.org/namespaces/inkscape"
   id="icons"
   enable-background="new 0 0 64 64"
   height="512"
   viewBox="0 0 64 64"
   width="512"
   version="1.1"
   sodipodi:docname="question.svg"
   inkscape:version="0.92.4 (5da689c313, 2019-01-14)">
  <metadata
     id="metadata49">
    <rdf:RDF>
      <cc:Work
         rdf:about="">
        <dc:format>image/svg+xml</dc:format>
        <dc:type
           rdf:resource="http://purl.org/dc/dcmitype/StillImage" />
        <dc:title></dc:title>
      </cc:Work>
    </rdf:RDF>
  </metadata>
  <defs
     id="defs47" />
  <sodipodi:namedview
     pagecolor="#ffffff"
     bordercolor="#666666"
     borderopacity="1"
     objecttolerance="10"
     gridtolerance="10"
     guidetolerance="10"
     inkscape:pageopacity="0"
     inkscape:pageshadow="2"
     inkscape:window-width="1920"
     inkscape:window-height="1005"
     id="namedview45"
     showgrid="false"
     inkscape:zoom="1.3037281"
     inkscape:cx="291.78006"
     inkscape:cy="318.59895"
     inkscape:window-x="-9"
     inkscape:window-y="-9"
     inkscape:window-maximized="1"
     inkscape:current-layer="icons" />
  <circle
     style="fill:#94c1ff;fill-opacity:1;stroke:#000000;stroke-width:0;stroke-linecap:round;stroke-linejoin:round;stroke-miterlimit:4;stroke-dasharray:none;stroke-opacity:0.41106723"
     id="path870"
     cx="25.186441"
     cy="24.813559"
     r="20.289068" />
  <path
     d="m49.249 43.589 12.58 12.59c1.56 1.56 1.56 4.09 0 5.65s-4.09 1.56-5.66 0l-12.58-12.58 1.42-1.41 2.82-2.83h.01z"
     fill="#94c1ff"
     id="path2" />
  <path
     d="m41.969 41.969c.471-.47.92-.96 1.351-1.47l4.51 4.51-2.82 2.83-4.51-4.51-.01-.011c.509-.42.999-.87 1.479-1.349z"
     fill="#d7e9ff"
     id="path4" />
  <path
     d="m39.85 39.849c8.199-8.2 8.199-21.5 0-29.7-8.2-8.2-21.5-8.2-29.7 0s-8.2 21.5 0 29.7 21.499 8.2 29.7 0zm2.119-31.821c8.9 8.9 9.351 23.051 1.351 32.471-.431.51-.88 1-1.351 1.47-.479.479-.97.93-1.479 1.35-9.43 8.011-23.561 7.551-32.46-1.35-9.37-9.37-9.37-24.57 0-33.94 9.379-9.37 24.57-9.37 33.939-.001z"
     fill="#fff"
     id="path6" />
  <path
     style="fill:#116fff"
     inkscape:connector-curvature="0"
     id="path14"
     d="M 25,46.998 C 19.123,46.998 13.599,44.71 9.443,40.555 5.288,36.4 3,30.876 3,24.999 3,19.122 5.288,13.598 9.443,9.443 13.599,5.288 19.123,3 25,3 c 5.876,0 11.401,2.288 15.557,6.443 8.577,8.577 8.577,22.534 0,31.111 C 36.401,44.71 30.877,46.998 25,46.998 Z M 25,5 C 19.657,5 14.635,7.08 10.857,10.857 7.08,14.634 5,19.656 5,24.999 c 0,5.343 2.08,10.365 5.857,14.142 3.777,3.777 8.8,5.857 14.143,5.857 5.343,0 10.365,-2.08 14.143,-5.857 7.798,-7.798 7.798,-20.485 0,-28.283 C 35.364,7.08 30.342,5 25,5 Z" />
  <path
     style="fill:#116fff"
     inkscape:connector-curvature="0"
     id="path16"
     d="m 25,49.998 c -6.678,0 -12.956,-2.6 -17.679,-7.322 C 2.601,37.954 0,31.677 0,24.999 0,18.321 2.601,12.043 7.322,7.322 12.044,2.6 18.322,0 25,0 c 6.677,0 12.955,2.6 17.678,7.322 9.747,9.747 9.747,25.606 0,35.354 C 37.955,47.398 31.677,49.998 25,49.998 Z M 25,2 C 18.856,2 13.081,4.392 8.736,8.736 4.393,13.08 2,18.855 2,24.999 c 0,6.144 2.393,11.919 6.735,16.263 4.345,4.344 10.121,6.736 16.265,6.736 6.143,0 11.919,-2.392 16.264,-6.736 8.967,-8.968 8.967,-23.558 0,-32.525 C 36.919,4.392 31.143,2 25,2 Z" />
  <path
     style="fill:#116fff"
     inkscape:connector-curvature="0"
     id="path18"
     d="m 45.005,48.834 c -0.256,0 -0.512,-0.098 -0.707,-0.293 l -4.508,-4.51 c -0.391,-0.391 -0.391,-1.023 0,-1.414 0.391,-0.391 1.023,-0.391 1.414,0 l 4.508,4.51 c 0.391,0.391 0.391,1.023 0,1.414 -0.195,0.195 -0.451,0.293 -0.707,0.293 z" />
  <path
     style="fill:#116fff"
     inkscape:connector-curvature="0"
     id="path20"
     d="m 47.834,46.006 c -0.256,0 -0.512,-0.098 -0.707,-0.293 l -4.515,-4.514 c -0.391,-0.391 -0.391,-1.023 0,-1.414 0.391,-0.391 1.023,-0.391 1.414,0 l 4.515,4.514 c 0.391,0.391 0.391,1.023 0,1.414 -0.195,0.195 -0.451,0.293 -0.707,0.293 z" />
  <path
     style="fill:#116fff"
     inkscape:connector-curvature="0"
     id="path22"
     d="m 43.591,50.248 c -0.256,0 -0.512,-0.098 -0.707,-0.293 -0.391,-0.391 -0.391,-1.023 0,-1.414 l 5.657,-5.658 c 0.391,-0.391 1.023,-0.391 1.414,0 0.391,0.391 0.391,1.023 0,1.414 l -5.657,5.658 c -0.195,0.195 -0.451,0.293 -0.707,0.293 z" />
  <path
     style="fill:#116fff"
     inkscape:connector-curvature="0"
     id="path24"
     d="m 56.171,62.828 c -0.256,0 -0.512,-0.098 -0.707,-0.293 l -12.58,-12.58 c -0.391,-0.391 -0.391,-1.023 0,-1.414 0.391,-0.391 1.023,-0.391 1.414,0 l 12.58,12.58 c 0.391,0.391 0.391,1.023 0,1.414 -0.195,0.195 -0.451,0.293 -0.707,0.293 z" />
  <path
     style="fill:#116fff"
     inkscape:connector-curvature="0"
     id="path26"
     d="m 61.828,57.172 c -0.256,0 -0.512,-0.098 -0.707,-0.293 L 48.541,44.297 c -0.391,-0.391 -0.391,-1.023 0,-1.414 0.391,-0.391 1.023,-0.391 1.414,0 l 12.58,12.582 c 0.391,0.391 0.391,1.023 0,1.414 -0.195,0.195 -0.451,0.293 -0.707,0.293 z" />
  <path
     style="fill:#116fff"
     inkscape:connector-curvature="0"
     id="path28"
     d="m 59.001,64 c -1.336,0 -2.592,-0.521 -3.537,-1.465 -0.391,-0.39 -0.391,-1.023 0,-1.414 0.391,-0.391 1.023,-0.391 1.414,0 1.134,1.132 3.11,1.136 4.242,0 C 61.687,60.555 62,59.801 62,58.999 62,58.198 61.688,57.445 61.121,56.88 60.73,56.489 60.73,55.857 61.12,55.465 c 0.391,-0.391 1.024,-0.39 1.415,-0.001 0.944,0.944 1.465,2.199 1.465,3.535 0,1.336 -0.521,2.592 -1.465,3.536 C 61.592,63.479 60.337,64 59.001,64 Z" />
  <rect
     style="fill:#d7e9ff;fill-opacity:1;stroke:#116fff;stroke-width:0;stroke-linecap:round;stroke-linejoin:round;stroke-miterlimit:4;stroke-dasharray:none;stroke-opacity:1;paint-order:normal"
     id="rect4665"
     width="3.7428195"
     height="27.704884"
     x="25.86067"
     y="-1.8210893"
     ry="1.595458"
     transform="matrix(0.89023135,0.45550867,-0.42362908,0.90583575,0,0)"
     rx="1.5954581" />
  <rect
     style="fill:#d7e9ff;fill-opacity:1;stroke:#116fff;stroke-width:0;stroke-linecap:round;stroke-linejoin:round;stroke-miterlimit:4;stroke-dasharray:none;stroke-opacity:1;paint-order:normal"
     id="rect4665-9-2"
     width="3.8798726"
     height="15.773438"
     x="24.270948"
     y="16.638329"
     ry="1.595458"
     transform="matrix(-4.0271608e-5,1,0.99999999,1.2633739e-4,0,0)"
     rx="1.595458" />
  <rect
     style="fill:#d7e9ff;fill-opacity:1;stroke:#116fff;stroke-width:0;stroke-linecap:round;stroke-linejoin:round;stroke-miterlimit:4;stroke-dasharray:none;stroke-opacity:1;paint-order:normal"
     id="rect4665-9"
     width="3.7428195"
     height="27.704884"
     x="-18.897619"
     y="20.709391"
     ry="1.595458"
     transform="matrix(-0.89023135,0.45550867,0.42362908,0.90583575,0,0)"
     rx="1.5954581" />
</svg>
