<svg height="511pt" viewBox="0 0 511.99345 511" width="511pt" xmlns="http://www.w3.org/2000/svg"><path d="m17.066406 247.949219h119.46875c4.710938 0 8.53125 3.820312 8.53125 8.535156v68.265625c0 4.714844-3.820312 8.535156-8.53125 8.535156h-119.46875c-4.710937 0-8.53125-3.820312-8.53125-8.535156v-68.265625c0-4.714844 3.820313-8.535156 8.53125-8.535156zm0 0" fill="#e8edfc"/><path d="m213.929688 247.949219h-60.328126c-4.714843 0-8.535156 3.820312-8.535156 8.535156v68.265625c0 4.714844 3.820313 8.535156 8.535156 8.535156h119.464844c4.714844 0 8.535156-3.820312 8.535156-8.535156v-56.574219zm0 0" fill="#e8edfc"/><path d="m418.132812 256.484375v68.265625c-.011718 4.707031-3.824218 8.519531-8.53125 8.535156h-119.46875c-4.707031-.015625-8.519531-3.828125-8.53125-8.535156v-56.574219l94.972657-20.226562h33.027343c4.707032.015625 8.519532 3.828125 8.53125 8.535156zm0 0" fill="#cad9fc"/><path d="m392.535156 256.484375v68.265625c-.015625 4.707031-3.828125 8.519531-8.535156 8.535156h-93.867188c-4.707031-.015625-8.519531-3.828125-8.53125-8.535156v-56.574219l94.972657-20.226562h7.425781c4.707031.015625 8.519531 3.828125 8.535156 8.535156zm0 0" fill="#e8edfc"/><path d="m85.332031 333.285156h119.46875c4.710938 0 8.53125 3.820313 8.53125 8.53125v68.265625c0 4.714844-3.820312 8.535157-8.53125 8.535157h-119.46875c-4.710937 0-8.53125-3.820313-8.53125-8.535157v-68.265625c0-4.710937 3.820313-8.53125 8.53125-8.53125zm0 0" fill="#e8edfc"/><path d="m221.867188 333.285156h119.464843c4.714844 0 8.535157 3.820313 8.535157 8.53125v68.265625c0 4.714844-3.820313 8.535157-8.535157 8.535157h-119.464843c-4.714844 0-8.535157-3.820313-8.535157-8.535157v-68.265625c0-4.710937 3.820313-8.53125 8.535157-8.53125zm0 0" fill="#e8edfc"/><path d="m358.398438 333.285156h119.46875c4.710937 0 8.53125 3.820313 8.53125 8.53125v68.265625c0 4.714844-3.820313 8.535157-8.53125 8.535157h-119.46875c-4.710938 0-8.53125-3.820313-8.53125-8.535157v-68.265625c0-4.710937 3.820312-8.53125 8.53125-8.53125zm0 0" fill="#cad9fc"/><path d="m358.398438 333.285156h93.867187c4.714844 0 8.535156 3.820313 8.535156 8.53125v68.265625c0 4.714844-3.820312 8.535157-8.535156 8.535157h-93.867187c-4.710938 0-8.53125-3.820313-8.53125-8.535157v-68.265625c0-4.710937 3.820312-8.53125 8.53125-8.53125zm0 0" fill="#e8edfc"/><path d="m17.066406 418.617188h119.46875c4.710938 0 8.53125 3.820312 8.53125 8.53125v68.269531c0 4.710937-3.820312 8.53125-8.53125 8.53125h-119.46875c-4.710937 0-8.53125-3.820313-8.53125-8.53125v-68.269531c0-4.710938 3.820313-8.53125 8.53125-8.53125zm0 0" fill="#e8edfc"/><path d="m153.601562 418.617188h119.464844c4.714844 0 8.535156 3.820312 8.535156 8.53125v68.269531c0 4.710937-3.820312 8.53125-8.535156 8.53125h-119.464844c-4.714843 0-8.535156-3.820313-8.535156-8.53125v-68.269531c0-4.710938 3.820313-8.53125 8.535156-8.53125zm0 0" fill="#e8edfc"/><path d="m290.132812 418.617188h119.46875c4.710938 0 8.53125 3.820312 8.53125 8.53125v68.269531c0 4.710937-3.820312 8.53125-8.53125 8.53125h-119.46875c-4.710937 0-8.53125-3.820313-8.53125-8.53125v-68.269531c0-4.710938 3.820313-8.53125 8.53125-8.53125zm0 0" fill="#cad9fc"/><path d="m290.132812 418.617188h93.867188c4.710938 0 8.535156 3.820312 8.535156 8.53125v68.269531c0 4.710937-3.824218 8.53125-8.535156 8.53125h-93.867188c-4.710937 0-8.53125-3.820313-8.53125-8.53125v-68.269531c0-4.710938 3.820313-8.53125 8.53125-8.53125zm0 0" fill="#e8edfc"/><path d="m386.21875 245.902344-27.734375 5.886718-141.566406 30.125c-4.296875.804688-8.679688-.898437-11.304688-4.390624-2.625-3.496094-3.039062-8.179688-1.070312-12.078126l73.558593-136.960937 8.363282-15.53125c1.851562-3.230469 5.222656-5.289063 8.9375-5.460937 3.71875-.171876 7.265625 1.566406 9.410156 4.605468l87.378906 116.480469c2.320313 2.902344 2.992188 6.792969 1.78125 10.308594-1.210937 3.511719-4.136718 6.160156-7.753906 7.015625zm0 0" fill="#cad9fc"/><path d="m358.484375 251.789062-141.566406 30.125c-4.296875.804688-8.679688-.898437-11.304688-4.390624-2.625-3.496094-3.039062-8.179688-1.070312-12.078126l73.558593-136.960937 81.492188 108.542969c3.515625 4.464844 3.035156 10.875-1.109375 14.761718zm0 0" fill="#e8edfc"/><path d="m407.839844 60.125 63.582031-47.695312c7.539063-5.65625 18.238281-4.128907 23.894531 3.410156l4.738282 6.320312c5.65625 7.539063 4.128906 18.238282-3.410157 23.894532l-63.582031 47.695312c-3.769531 2.828125-9.117188 2.0625-11.945312-1.707031l-14.984376-19.972657c-2.828124-3.769531-2.0625-9.117187 1.707032-11.945312zm0 0" fill="#e8edfc"/><g fill="#fffdfd"><path d="m375.464844 410.082031c0 4.714844-3.820313 8.535157-8.53125 8.535157h17.066406c-4.707031-.015626-8.519531-3.828126-8.535156-8.535157zm0 0"/><path d="m307.199219 427.148438c.015625-4.707032 3.828125-8.519532 8.535156-8.53125h-17.066406c4.710937 0 8.53125 3.820312 8.53125 8.53125zm0 0"/><path d="m238.933594 341.816406c0-4.710937 3.820312-8.53125 8.53125-8.53125h-17.066406c4.714843 0 8.535156 3.820313 8.535156 8.53125zm0 0"/><path d="m307.199219 495.417969c0 4.710937-3.820313 8.53125-8.53125 8.53125h17.066406c-4.707031-.011719-8.519531-3.824219-8.535156-8.53125zm0 0"/><path d="m170.667969 427.148438c0-4.710938 3.820312-8.53125 8.53125-8.53125h-17.066407c4.714844 0 8.535157 3.820312 8.535157 8.53125zm0 0"/><path d="m238.933594 410.082031c0 4.714844-3.820313 8.535157-8.535156 8.535157h17.066406c-4.710938 0-8.53125-3.820313-8.53125-8.535157zm0 0"/><path d="m170.667969 324.75c-.015625 4.707031-3.828125 8.519531-8.535157 8.535156h17.066407c-4.710938 0-8.53125-3.820312-8.53125-8.535156zm0 0"/><path d="m307.199219 324.75c0 4.714844-3.820313 8.535156-8.53125 8.535156h17.066406c-4.707031-.015625-8.519531-3.828125-8.535156-8.535156zm0 0"/><path d="m102.398438 410.082031v-68.265625c0-4.710937 3.820312-8.53125 8.535156-8.53125h-25.601563c-4.710937 0-8.53125 3.820313-8.53125 8.53125v68.265625c0 4.714844 3.820313 8.535157 8.53125 8.535157h25.601563c-4.714844 0-8.535156-3.820313-8.535156-8.535157zm0 0"/><path d="m375.464844 341.816406c.015625-4.707031 3.828125-8.519531 8.535156-8.53125h-17.066406c4.710937 0 8.53125 3.820313 8.53125 8.53125zm0 0"/><path d="m17.066406 503.949219h25.601563c-4.714844 0-8.535157-3.820313-8.535157-8.53125v-68.269531c0-4.710938 3.820313-8.53125 8.535157-8.53125h-25.601563c-4.710937 0-8.53125 3.820312-8.53125 8.53125v68.269531c0 4.710937 3.820313 8.53125 8.53125 8.53125zm0 0"/><path d="m17.066406 333.285156h25.601563c-4.707031-.015625-8.519531-3.828125-8.535157-8.535156v-68.265625c.015626-4.707031 3.828126-8.519531 8.535157-8.535156h-25.601563c-4.707031.015625-8.519531 3.828125-8.53125 8.535156v68.265625c.011719 4.707031 3.824219 8.519531 8.53125 8.535156zm0 0"/><path d="m170.667969 495.417969c0 4.710937-3.820313 8.53125-8.535157 8.53125h17.066407c-4.710938 0-8.53125-3.820313-8.53125-8.53125zm0 0"/></g><path d="m145.066406 341.816406h-136.53125c-4.714844 0-8.535156-3.820312-8.535156-8.53125v-85.335937c0-4.710938 3.820312-8.53125 8.535156-8.53125h136.53125c4.714844 0 8.535156 3.820312 8.535156 8.53125v85.335937c0 4.710938-3.820312 8.53125-8.535156 8.53125zm-128-17.066406h119.46875v-68.265625h-119.46875zm0 0" fill="#428dff"/><path d="m281.601562 341.816406h-136.535156c-4.710937 0-8.53125-3.820312-8.53125-8.53125v-85.335937c0-4.710938 3.820313-8.53125 8.53125-8.53125h68.863282c4.714843 0 8.535156 3.820312 8.535156 8.53125 0 4.714843-3.820313 8.535156-8.535156 8.535156h-60.328126v68.265625h119.464844v-56.574219c0-4.714843 3.820313-8.535156 8.535156-8.535156 4.710938 0 8.53125 3.820313 8.53125 8.535156v65.109375c0 4.710938-3.820312 8.53125-8.53125 8.53125zm0 0" fill="#428dff"/><path d="m418.132812 341.816406h-136.53125c-4.714843 0-8.535156-3.820312-8.535156-8.53125v-65.109375c0-4.714843 3.820313-8.535156 8.535156-8.535156 4.710938 0 8.53125 3.820313 8.53125 8.535156v56.574219h119.46875v-68.265625h-33.027343c-4.710938 0-8.53125-3.820313-8.53125-8.535156 0-4.710938 3.820312-8.53125 8.53125-8.53125h41.558593c4.714844 0 8.535157 3.820312 8.535157 8.53125v85.335937c0 4.710938-3.820313 8.53125-8.535157 8.53125zm0 0" fill="#428dff"/><path d="m213.332031 427.148438h-136.53125c-4.714843 0-8.535156-3.820313-8.535156-8.53125v-85.332032c0-4.714844 3.820313-8.535156 8.535156-8.535156h136.53125c4.714844 0 8.535157 3.820312 8.535157 8.535156v85.332032c0 4.710937-3.820313 8.53125-8.535157 8.53125zm-128-17.066407h119.46875v-68.265625h-119.46875zm0 0" fill="#428dff"/><path d="m349.867188 427.148438h-136.535157c-4.710937 0-8.53125-3.820313-8.53125-8.53125v-85.332032c0-4.714844 3.820313-8.535156 8.53125-8.535156h136.535157c4.710937 0 8.53125 3.820312 8.53125 8.535156v85.332032c0 4.710937-3.820313 8.53125-8.53125 8.53125zm-128-17.066407h119.464843v-68.265625h-119.464843zm0 0" fill="#428dff"/><path d="m486.398438 427.148438h-136.53125c-4.714844 0-8.535157-3.820313-8.535157-8.53125v-85.332032c0-4.714844 3.820313-8.535156 8.535157-8.535156h136.53125c4.714843 0 8.535156 3.820312 8.535156 8.535156v85.332032c0 4.710937-3.820313 8.53125-8.535156 8.53125zm-128-17.066407h119.46875v-68.265625h-119.46875zm0 0" fill="#428dff"/><path d="m145.066406 512.484375h-136.53125v-17.066406h136.53125zm0 0" fill="#fff"/><path d="m102.398438 503.949219c.015624 4.707031 3.828124 8.519531 8.535156 8.535156h34.132812v-17.066406h-34.132812c-4.707032.011719-8.519532 3.824219-8.535156 8.53125zm0 0" fill="#428dff"/><path d="m8.535156 495.417969v17.066406h34.132813c4.710937 0 8.53125-3.820313 8.53125-8.535156 0-4.710938-3.820313-8.53125-8.53125-8.53125zm0 0" fill="#428dff"/><path d="m76.800781 512.484375c2.257813-.035156 4.421875-.917969 6.058594-2.476563l1.023437-1.277343c.324219-.476563.582032-.992188.769532-1.539063.246094-.480468.417968-1 .511718-1.535156.09375-.5625.152344-1.132812.167969-1.707031-.03125-2.257813-.914062-4.421875-2.472656-6.058594-1.996094-2.070313-4.910156-2.980469-7.726563-2.410156-2.820312.574219-5.152343 2.542969-6.183593 5.226562-.4375 1.027344-.667969 2.128907-.683594 3.242188-.023437 2.269531.871094 4.453125 2.476563 6.058593 1.605468 1.605469 3.789062 2.5 6.058593 2.476563zm0 0" fill="#428dff"/><path d="m145.066406 512.484375c-4.710937 0-8.53125-3.820313-8.53125-8.535156v-76.800781h-119.46875v76.800781c0 4.714843-3.820312 8.535156-8.53125 8.535156-4.714844 0-8.535156-3.820313-8.535156-8.535156v-85.332031c0-4.714844 3.820312-8.535157 8.535156-8.535157h136.53125c4.714844 0 8.535156 3.820313 8.535156 8.535157v85.332031c0 4.714843-3.820312 8.535156-8.535156 8.535156zm0 0" fill="#428dff"/><path d="m281.601562 512.484375h-136.535156c-4.710937 0-8.53125-3.820313-8.53125-8.535156v-85.332031c0-4.714844 3.820313-8.535157 8.53125-8.535157h136.535156c4.710938 0 8.53125 3.820313 8.53125 8.535157v85.332031c0 4.714843-3.820312 8.535156-8.53125 8.535156zm-128-17.066406h119.464844v-68.269531h-119.464844zm0 0" fill="#428dff"/><path d="m418.132812 512.484375h-136.53125c-4.714843 0-8.535156-3.820313-8.535156-8.535156v-85.332031c0-4.714844 3.820313-8.535157 8.535156-8.535157h136.53125c4.714844 0 8.535157 3.820313 8.535157 8.535157v85.332031c0 4.714843-3.820313 8.535156-8.535157 8.535156zm-128-17.066406h119.46875v-68.269531h-119.46875zm0 0" fill="#428dff"/><path d="m214.554688 290.695312c-6.957032-.089843-13.371094-3.78125-16.945313-9.75s-3.796875-13.367187-.59375-19.539062l81.9375-152.464844c3.0625-5.714844 8.839844-9.464844 15.304687-9.9375 6.777344-.496094 13.332032 2.515625 17.367188 7.980469l87.359375 116.453125c4.113281 5.402344 5.167969 12.539062 2.800781 18.90625-2.261718 6.078125-7.480468 10.574219-13.824218 11.910156l-169.296876 36.003906c-1.351562.289063-2.730468.4375-4.109374.4375zm81.167968-174.675781-.171875.007813c-.664062.015625-1.261719.402344-1.554687 1l-81.941406 152.460937c-.46875.957031-.328126 2.101563.351562 2.921875.605469.871094 1.660156 1.324219 2.710938 1.15625l169.296874-36.003906c.652344-.113281 1.1875-.582031 1.394532-1.210938.320312-.914062.140625-1.925781-.472656-2.671874l-87.355469-116.449219c-.515625-.742188-1.355469-1.191407-2.257813-1.207031zm0 0" fill="#428dff"/><path d="m306.457031 210.394531c-3.671875.003907-6.9375-2.34375-8.101562-5.828125-1.164063-3.488281.035156-7.324218 2.972656-9.53125l66.660156-50.003906c3.339844-2.503906 5.207031-6.511719 4.96875-10.679688l-.851562-15.367187c-.558594-9.867187 3.859375-19.359375 11.769531-25.28125l24.625-18.46875c3.769531-2.828125 9.117188-2.0625 11.945312 1.707031 2.828126 3.769532 2.066407 9.121094-1.707031 11.949219l-24.625 18.472656c-3.339843 2.503907-5.207031 6.511719-4.96875 10.679688l.851563 15.367187c.5625 9.867188-3.859375 19.355469-11.769532 25.277344l-66.660156 50.007812c-1.472656 1.105469-3.265625 1.703126-5.109375 1.699219zm0 0" fill="#428dff"/><path d="m426.234375 107.40625c-.40625 0-.808594-.027344-1.210937-.085938-2.238282-.320312-4.257813-1.515624-5.613282-3.328124l-25.222656-33.621094c-2.828125-3.769532-2.0625-9.117188 1.707031-11.945313l70.398438-52.8125c11.3125-8.472656 27.347656-6.1875 35.839843 5.105469l4.742188 6.332031c8.476562 11.304688 6.1875 27.34375-5.113281 35.828125l-5.121094-6.828125 5.121094 6.828125-70.40625 52.820313c-1.476563 1.109375-3.277344 1.707031-5.121094 1.707031zm-13.277344-40.457031 14.980469 19.976562 63.582031-47.695312c3.765625-2.828125 4.53125-8.171875 1.707031-11.941407l-4.742187-6.332031c-2.828125-3.765625-8.179687-4.527343-11.945313-1.699219zm0 0" fill="#428dff"/><path d="m34.132812 290.617188h-25.597656c-4.714844 0-8.535156-3.820313-8.535156-8.535157 0-4.710937 3.820312-8.53125 8.535156-8.53125h25.597656c4.714844 0 8.535157 3.820313 8.535157 8.53125 0 4.714844-3.820313 8.535157-8.535157 8.535157zm0 0" fill="#428dff"/><path d="m102.398438 290.617188h-34.132813c-4.710937 0-8.53125-3.820313-8.53125-8.535157 0-4.710937 3.820313-8.53125 8.53125-8.53125h34.132813c4.714843 0 8.535156 3.820313 8.535156 8.53125 0 4.714844-3.820313 8.535157-8.535156 8.535157zm0 0" fill="#428dff"/></svg>