<svg id="icons" enable-background="new 0 0 64 64" height="512" viewBox="0 0 64 64" width="512" xmlns="http://www.w3.org/2000/svg"><path d="m63 39v3h-.02c0 3.86-3.131 6.99-6.99 6.99-3.86 0-6.99-3.13-6.99-6.99v-3h10.01 3.971z" fill="#94c1ff"/><path d="m53 2 9.98 37h-3.97l-10.01-31v-6z" fill="#d7e9ff"/><path d="m33.99 24.68-2.99 3.32.01 6h-6.99l-.02-9 25-23v6z" fill="#94c1ff"/><path d="m41.52 56c.83.01 1.49.67 1.49 1.5s-.66 1.49-1.49 1.5h-.01-32c-.83 0-1.5-.67-1.5-1.5s.67-1.5 1.5-1.5h32z" fill="#94c1ff"/><path d="m41.51 56h-32c-.83 0-1.5.67-1.5 1.5s.67 1.5 1.5 1.5h32 .01c.83-.01 1.49-.67 1.49-1.5s-.66-1.49-1.49-1.5zm.01 6h-32.01c-2.49 0-4.5-2.02-4.5-4.5s2.01-4.5 4.5-4.5h10.49 16 5.52c2.48 0 4.5 2.02 4.5 4.5s-2.02 4.5-4.5 4.5z" fill="#94c1ff"/><path d="m33.01 50v-8l-1.26-5h-5.75-3v13h3zm.98-16 2.01 8v11h-16v-14-5h4.02 6.99z" fill="#d7e9ff"/><path d="m33.01 42v8h-7.01v-13h5.75z" fill="#94c1ff"/><path d="m23 37h3v13h-3z" fill="#94c1ff"/><path d="m20 39v14h-10.49-8.51v-14z" fill="#d7e9ff"/><g fill="#116fff"><path d="m9.507 60.001c-1.379 0-2.5-1.121-2.5-2.5s1.121-2.5 2.5-2.5c.553 0 1 .447 1 1s-.447 1-1 1c-.275 0-.5.225-.5.5s.225.5.5.5c.553 0 1 .447 1 1s-.447 1-1 1z"/><path d="m9.509 63.001c-3.032 0-5.5-2.468-5.5-5.5s2.468-5.5 5.5-5.5c.553 0 1 .447 1 1s-.447 1-1 1c-1.93 0-3.5 1.57-3.5 3.5s1.57 3.5 3.5 3.5c.553 0 1 .447 1 1s-.447 1-1 1z"/><path d="m41.519 63.001c-.553 0-1-.447-1-1s.447-1 1-1c1.93 0 3.5-1.57 3.5-3.5s-1.57-3.5-3.5-3.5c-.553 0-1-.447-1-1s.447-1 1-1c3.032 0 5.5 2.468 5.5 5.5s-2.468 5.5-5.5 5.5z"/><path d="m41.512 60.001c-.553 0-1-.447-1-1s.447-1 1-1c.275 0 .5-.225.5-.5s-.225-.5-.5-.5c-.553 0-1-.447-1-1s.447-1 1-1c1.379 0 2.5 1.121 2.5 2.5s-1.121 2.5-2.5 2.5z"/><path d="m41.519 54.001h-40.519c-.553 0-1-.447-1-1s.447-1 1-1h40.519c.553 0 1 .447 1 1s-.448 1-1 1z"/><path d="m41.519 57.001h-32.01c-.553 0-1-.447-1-1s.447-1 1-1h32.01c.553 0 1 .447 1 1s-.448 1-1 1z"/><path d="m41.519 60.001h-32.01c-.553 0-1-.447-1-1s.447-1 1-1h32.01c.553 0 1 .447 1 1s-.448 1-1 1z"/><path d="m41.519 63.001h-32.01c-.553 0-1-.447-1-1s.447-1 1-1h32.01c.553 0 1 .447 1 1s-.448 1-1 1z"/><path d="m1 54.001c-.553 0-1-.447-1-1v-14.003c0-.553.447-1 1-1s1 .447 1 1v14.003c0 .553-.447 1-1 1z"/><path d="m20 39.998h-19c-.553 0-1-.447-1-1s.447-1 1-1h19c.553 0 1 .447 1 1s-.447 1-1 1z"/><path d="m20 54.001c-.553 0-1-.447-1-1v-19.003c0-.553.447-1 1-1s1 .447 1 1v19.003c0 .553-.447 1-1 1z"/><path d="m33.986 34.998h-13.986c-.553 0-1-.447-1-1s.447-1 1-1h13.986c.553 0 1 .447 1 1s-.447 1-1 1z"/><path d="m36.001 42.998c-.447 0-.854-.302-.969-.756l-2.016-8c-.135-.535.189-1.079.726-1.214.534-.132 1.079.189 1.214.726l2.016 8c.135.535-.189 1.079-.726 1.214-.082.02-.164.03-.245.03z"/><path d="m33.013 42.998c-.447 0-.854-.302-.969-.756l-1.26-4.998c-.135-.535.189-1.079.726-1.214.536-.133 1.079.189 1.214.726l1.26 4.998c.135.535-.189 1.079-.726 1.214-.082.02-.164.03-.245.03z"/><path d="m36.002 54.028c-.553 0-1-.447-1-1v-11.03c0-.553.447-1 1-1s1 .447 1 1v11.03c0 .553-.447 1-1 1z"/><path d="m33.007 51.001h-10.005c-.553 0-1-.447-1-1v-13.004c0-.553.447-1 1-1h8.752c.553 0 1 .447 1 1s-.447 1-1 1h-7.752v11.004h8.005v-7.004c0-.553.447-1 1-1s1 .447 1 1v8.004c0 .553-.447 1-1 1z"/><path d="m59.006 39.998c-.423 0-.815-.27-.952-.693l-10.002-31c-.031-.099-.048-.203-.048-.307v-5.999c0-.552.447-1 1-1h3.999c.452 0 .848.303.966.74l9.98 36.999c.144.533-.172 1.082-.705 1.227s-1.081-.172-1.227-.705l-9.78-36.26h-2.233v4.84l9.954 30.851c.169.525-.119 1.089-.646 1.259-.101.032-.205.048-.306.048z"/><path d="m31.006 34.998c-.552 0-1-.447-1-1l-.002-5.998c0-.247.092-.486.257-.669l18-20.002c.37-.41 1.002-.443 1.412-.074s.443 1.001.074 1.412l-17.743 19.717.002 5.614c0 .552-.447 1-1 1z"/><path d="m24.024 34.998c-.551 0-.999-.446-1-.998l-.021-8.998c-.001-.281.116-.548.323-.738l25.001-23.001c.405-.373 1.039-.348 1.413.059.373.407.348 1.039-.06 1.413l-24.676 22.703.021 8.558c.001.552-.445 1.001-.998 1.002-.001 0-.002 0-.003 0z"/><path d="m63 39.998h-14.999c-.553 0-1-.447-1-1s.447-1 1-1h14.999c.553 0 1 .447 1 1s-.447 1-1 1z"/><path d="m55.994 49.988c-4.406 0-7.99-3.584-7.99-7.99 0-.553.447-1 1-1s1 .447 1 1c0 3.303 2.688 5.99 5.99 5.99s5.989-2.688 5.989-5.99c0-.553.447-1 1-1s1 .447 1 1c0 4.406-3.584 7.99-7.989 7.99z"/><path d="m49.004 42.998c-.553 0-1-.447-1-1v-2.999c0-.553.447-1 1-1s1 .447 1 1v2.999c0 .553-.447 1-1 1z"/><path d="m63 42.998c-.553 0-1-.447-1-1v-2.999c0-.553.447-1 1-1s1 .447 1 1v2.999c0 .553-.447 1-1 1z"/><path d="m16 44h-11c-.553 0-1-.447-1-1s.447-1 1-1h11c.553 0 1 .447 1 1s-.447 1-1 1z"/><path d="m16 46.999h-11c-.553 0-1-.447-1-1s.447-1 1-1h11c.553 0 1 .447 1 1s-.447 1-1 1z"/><path d="m16 49.998h-11c-.553 0-1-.447-1-1s.447-1 1-1h11c.553 0 1 .447 1 1s-.447 1-1 1z"/><path d="m26 51.001c-.553 0-1-.447-1-1v-12.999c0-.553.447-1 1-1s1 .447 1 1v12.999c0 .553-.447 1-1 1z"/><path d="m33.986 34.998c-.553 0-1-.447-1-1v-13.857c0-.552.447-1 1-1s1 .448 1 1v13.857c0 .553-.447 1-1 1z"/></g></svg>